<svg width="16" height="16" viewBox="0 0 16 16" fill="none" xmlns="http://www.w3.org/2000/svg">
    <path d="M12.8464 3.55369C11.9598 3.14036 10.9998 2.84036 9.99975 2.66702C9.99098 2.66674 9.98226 2.66839 9.9742 2.67184C9.96614 2.6753 9.95893 2.68048 9.95309 2.68702C9.83309 2.90702 9.69309 3.19369 9.59975 3.41369C8.53909 3.25369 7.46042 3.25369 6.39975 3.41369C6.30642 3.18702 6.16642 2.90702 6.03975 2.68702C6.03309 2.67369 6.01309 2.66702 5.99309 2.66702C4.99309 2.84036 4.03975 3.14036 3.14642 3.55369C3.13975 3.55369 3.13309 3.56036 3.12642 3.56702C1.31309 6.28036 0.813086 8.92036 1.05975 11.5337C1.05975 11.547 1.06642 11.5604 1.07975 11.567C2.27975 12.447 3.43309 12.9804 4.57309 13.3337C4.59309 13.3404 4.61309 13.3337 4.61975 13.3204C4.88642 12.9537 5.12642 12.567 5.33309 12.1604C5.34642 12.1337 5.33309 12.107 5.30642 12.1004C4.92642 11.9537 4.56642 11.7804 4.21309 11.5804C4.18642 11.567 4.18642 11.527 4.20642 11.507C4.27975 11.4537 4.35309 11.3937 4.42642 11.3404C4.43975 11.327 4.45975 11.327 4.47309 11.3337C6.76642 12.3804 9.23975 12.3804 11.5064 11.3337C11.5198 11.327 11.5398 11.327 11.5531 11.3404C11.6264 11.4004 11.6998 11.4537 11.7731 11.5137C11.7998 11.5337 11.7998 11.5737 11.7664 11.587C11.4198 11.7937 11.0531 11.9604 10.6731 12.107C10.6464 12.1137 10.6398 12.147 10.6464 12.167C10.8598 12.5737 11.0998 12.9604 11.3598 13.327C11.3798 13.3337 11.3998 13.3404 11.4198 13.3337C12.5664 12.9804 13.7198 12.447 14.9198 11.567C14.9331 11.5604 14.9398 11.547 14.9398 11.5337C15.2331 8.51369 14.4531 5.89369 12.8731 3.56702C12.8664 3.56036 12.8598 3.55369 12.8464 3.55369ZM5.67975 9.94036C4.99309 9.94036 4.41975 9.30702 4.41975 8.52702C4.41975 7.74702 4.97975 7.11369 5.67975 7.11369C6.38642 7.11369 6.94642 7.75369 6.93975 8.52702C6.93975 9.30702 6.37975 9.94036 5.67975 9.94036ZM10.3264 9.94036C9.63975 9.94036 9.06642 9.30702 9.06642 8.52702C9.06642 7.74702 9.62642 7.11369 10.3264 7.11369C11.0331 7.11369 11.5931 7.75369 11.5864 8.52702C11.5864 9.30702 11.0331 9.94036 10.3264 9.94036Z" fill="white"/>
</svg>